# xmcd
#
# Track frame offsets:
#       150
#       16925
#       29317
#       46747
#       63085
#       80337
#       101097
#       119232
#       133302
#       151082
#       167312
#       184077
#
# Disc length: 2676 seconds
#
# Revision: 0
# Processed by: cddbd v1.5.1PL0 Copyright (c) Steve Scherf et al.
# Submitted via: WhereIsIt 3.26
#
DISCID=910a720c
DTITLE=05569.이용 - 8집 - New and Best CD1
DYEAR=1900
DGENRE=
TTITLE0=후회
TTITLE1=사랑은 길어요
TTITLE2=못다한 효(孝)
TTITLE3=할미꽃
TTITLE4=못질
TTITLE5=환희의 순간
TTITLE6=가슴을 비워놓고
TTITLE7=립싱크 사랑
TTITLE8=굿나잇 그렇게 얘기하지 말아요
TTITLE9=이별없는 세상
TTITLE10=강언덕에 이를때
TTITLE11=후회(경음악)
EXTD=
EXTT0=
EXTT1=
EXTT2=
EXTT3=
EXTT4=
EXTT5=
EXTT6=
EXTT7=
EXTT8=
EXTT9=
EXTT10=
EXTT11=
PLAYORDER=
